<?xml version="1.0" standalone="no"?>
<!DOCTYPE svg PUBLIC "-//W3C//DTD SVG 20010904//EN"
 "http://www.w3.org/TR/2001/REC-SVG-20010904/DTD/svg10.dtd">
<svg version="1.0" xmlns="http://www.w3.org/2000/svg"
 width="800.000000pt" height="798.000000pt" viewBox="0 0 800.000000 798.000000"
 preserveAspectRatio="xMidYMid meet">

<g transform="translate(0.000000,798.000000) scale(0.100000,-0.100000)"
fill="#000000" stroke="none">
<path d="M650 7683 c-25 -8 -67 -20 -95 -27 l-50 -13 -3 -259 -2 -259 150 -75
c83 -41 149 -79 147 -85 -5 -16 -126 -44 -196 -44 -38 -1 -93 8 -135 20 -57
17 -79 30 -113 65 -24 24 -43 38 -43 31 0 -20 55 -72 103 -99 38 -21 54 -23
177 -23 115 0 145 4 202 23 37 13 70 28 73 33 4 5 12 9 20 9 37 0 201 135 228
188 5 9 -12 -7 -38 -36 -26 -29 -73 -70 -104 -90 -56 -38 -141 -76 -149 -67
-3 2 3 16 13 31 9 15 12 23 5 19 -7 -4 -15 -3 -19 3 -3 5 -5 108 -3 227 3 208
4 217 23 222 26 7 19 25 -17 42 -16 8 -31 17 -34 20 -3 3 -37 22 -77 41 -43
21 -70 40 -68 48 3 6 0 12 -5 12 -6 0 -10 5 -10 11 0 8 4 8 14 0 15 -13 82 -6
91 9 3 5 17 7 30 4 27 -5 32 5 13 24 -16 16 -73 14 -128 -5z m-40 -51 c0 -11
23 -32 65 -56 36 -21 64 -40 62 -42 -2 -2 -40 14 -85 36 -45 22 -85 40 -90 40
-5 0 -15 6 -21 14 -10 12 -8 15 11 19 47 9 58 7 58 -11z m-18 -64 c2 -7 6 -33
7 -58 2 -25 9 -52 17 -61 18 -20 18 -43 -1 -36 -9 4 -24 -6 -40 -26 l-25 -32
0 42 c0 32 -5 45 -20 53 -26 14 -26 30 0 37 14 4 24 19 31 49 11 44 23 56 31
32z m206 -65 c21 -21 -3 -15 -29 7 -21 17 -21 19 -4 13 11 -4 26 -13 33 -20z
m-78 -98 c7 -8 21 -15 31 -15 16 0 19 -8 19 -55 0 -30 -4 -55 -9 -55 -4 0 -16
20 -25 45 -11 28 -29 51 -47 62 -16 10 -29 21 -29 25 0 14 47 8 60 -7z m-120
-193 c6 -55 7 -56 18 -29 17 40 33 30 57 -34 16 -40 26 -54 40 -54 36 0 28 37
-21 93 -49 56 -51 75 -9 94 21 9 28 8 46 -8 12 -10 27 -31 35 -46 19 -37 18
-128 -2 -156 -17 -25 -56 -29 -74 -7 -7 8 -21 15 -31 15 -14 0 -19 7 -19 27 0
25 -1 25 -19 9 -15 -14 -24 -15 -39 -7 -23 12 -32 51 -32 139 l0 66 22 -22
c16 -16 24 -39 28 -80z"/>
<path d="M1151 7344 c0 -11 3 -14 6 -6 3 7 2 16 -1 19 -3 4 -6 -2 -5 -13z"/>
<path d="M1139 7240 c-8 -27 -12 -47 -8 -44 10 6 31 72 27 83 -2 5 -10 -12
-19 -39z"/>
<path d="M296 7075 c4 -8 8 -15 10 -15 2 0 4 7 4 15 0 8 -4 15 -10 15 -5 0 -7
-7 -4 -15z"/>
<path d="M3843 6172 c-3 -7 5 -51 17 -99 30 -119 25 -186 -19 -225 -20 -18
-42 -28 -62 -28 l-31 0 3 178 4 177 -105 -4 c-58 -1 -109 -6 -113 -11 -5 -4 1
-56 12 -116 42 -225 52 -438 29 -601 -8 -52 -8 -86 -3 -92 6 -5 58 -6 118 -4
l107 6 0 31 c0 17 -7 63 -15 101 -9 39 -18 103 -22 143 l-6 72 27 0 c38 0 81
-24 108 -62 21 -30 23 -43 22 -155 l0 -122 105 6 c58 3 109 9 114 12 4 4 0 27
-8 52 -9 24 -25 79 -36 123 -25 97 -39 126 -91 182 l-40 43 30 38 c16 21 34
52 40 68 10 28 32 215 32 277 l0 28 -106 -2 c-75 -2 -108 -7 -111 -16z"/>
<path d="M4550 5961 c0 -209 -9 -321 -41 -509 -12 -68 -19 -125 -16 -129 3 -3
48 -13 99 -24 51 -10 115 -25 142 -34 27 -8 55 -15 62 -15 7 0 22 33 34 73 63
208 123 356 216 537 41 79 73 149 70 156 -2 6 -26 15 -53 18 -26 4 -72 15
-101 24 -32 9 -56 12 -61 6 -5 -5 -23 -64 -40 -131 -55 -214 -158 -483 -169
-438 -9 41 20 297 52 443 18 83 30 156 27 160 -5 7 -113 34 -193 49 l-28 5 0
-191z"/>
<path d="M2815 5996 c-27 -7 -64 -20 -80 -28 -17 -9 -61 -26 -98 -38 -37 -12
-67 -26 -67 -31 0 -5 22 -53 49 -106 98 -195 150 -353 201 -605 6 -32 16 -58
22 -58 6 0 69 18 140 41 108 34 137 47 173 80 86 79 106 228 55 404 -72 252
-225 384 -395 341z m123 -150 c100 -85 184 -405 126 -483 -24 -33 -69 -52 -84
-37 -13 13 -104 276 -130 376 -23 86 -24 106 -10 142 13 34 58 35 98 2z"/>
<path d="M6071 5508 c-12 -12 -21 -25 -21 -30 0 -12 -108 -187 -163 -263 -66
-92 -135 -174 -220 -262 -76 -78 -79 -91 -25 -117 18 -9 53 -35 77 -57 36 -34
46 -38 57 -27 7 7 48 72 91 144 90 149 175 261 303 400 50 53 90 100 90 104 0
5 -17 19 -37 31 -21 12 -59 40 -85 61 l-47 39 -20 -23z"/>
<path d="M1557 5253 c-42 -42 -77 -81 -77 -87 0 -6 24 -28 53 -48 77 -53 155
-126 173 -160 34 -65 -14 -114 -80 -83 -38 18 -119 108 -169 188 -17 26 -34
47 -38 47 -5 0 -45 -37 -90 -82 l-82 -83 24 -17 c13 -9 62 -45 108 -80 153
-115 161 -120 209 -115 l42 5 0 -53 c0 -45 6 -60 35 -101 20 -27 60 -86 91
-131 30 -46 61 -83 67 -83 13 1 173 158 166 163 -2 2 -33 24 -69 49 -78 55
-147 127 -156 164 -11 45 24 82 68 71 32 -8 108 -86 161 -164 23 -34 47 -63
52 -63 6 0 46 35 90 77 l79 77 -34 27 c-66 53 -206 156 -230 169 -13 7 -40 12
-61 12 l-37 -1 0 43 c1 47 -7 62 -98 181 -33 45 -69 95 -79 113 -11 17 -24 33
-30 36 -6 2 -46 -30 -88 -71z"/>
<path d="M6544 5043 c-113 -140 -348 -357 -486 -451 -26 -18 -50 -37 -53 -42
-4 -6 21 -40 54 -77 34 -36 61 -70 61 -74 0 -5 8 -9 18 -9 11 0 41 27 69 63
112 137 295 307 461 426 39 29 72 56 72 60 0 12 -136 151 -147 151 -6 0 -28
-21 -49 -47z"/>
<path d="M4338 4933 c6 -2 18 -2 25 0 6 3 1 5 -13 5 -14 0 -19 -2 -12 -5z"/>
<path d="M4548 4933 c7 -3 16 -2 19 1 4 3 -2 6 -13 5 -11 0 -14 -3 -6 -6z"/>
<path d="M4301 4911 c-14 -9 -8 -45 14 -71 7 -8 16 -33 19 -55 12 -69 16 -76
37 -70 18 6 25 -9 20 -39 -1 -5 3 -12 8 -16 7 -4 8 -17 2 -37 -6 -20 -4 -48 5
-84 8 -30 13 -58 11 -64 -2 -5 3 -16 12 -23 14 -12 13 -13 -6 -9 -23 5 -49
-15 -39 -31 11 -18 210 -72 264 -72 16 0 31 -2 34 -5 3 -4 38 -7 77 -9 69 -3
74 -2 136 38 69 43 76 53 48 63 -27 10 -33 23 -33 82 0 43 5 59 26 84 25 29
25 33 18 131 -3 56 -8 102 -9 104 -1 2 -20 -8 -40 -23 -36 -24 -85 -34 -85
-17 0 5 -23 14 -51 21 -28 8 -63 20 -78 27 -14 8 -35 14 -46 13 -11 0 -2 -6
20 -14 22 -7 33 -13 25 -14 -18 -1 -269 39 -290 46 -8 3 -29 5 -47 4 -27 -2
-32 1 -35 23 -2 19 -7 23 -17 17z m229 -116 c14 -8 46 -14 72 -15 26 0 59 -5
75 -11 19 -7 29 -7 31 0 5 14 42 14 42 1 0 -5 -4 -10 -10 -10 -5 0 -10 -4 -10
-10 0 -5 8 -10 18 -10 13 0 22 -12 29 -35 11 -34 10 -35 -15 -35 -34 0 -310
48 -323 55 -11 7 -12 45 -1 61 4 7 18 14 32 17 14 2 27 5 30 5 3 1 16 -5 30
-13z m10 -206 c10 -5 -1 -8 -32 -9 -44 0 -65 9 -52 23 7 7 63 -2 84 -14z m320
-24 c0 -31 -16 -33 -23 -4 -5 17 -11 20 -29 15 -13 -4 -48 -11 -79 -15 -31 -5
-70 -16 -87 -25 -34 -17 -52 -7 -25 15 28 24 85 37 166 38 76 1 77 1 77 -24z
m-339 -25 c40 0 40 -34 -1 -55 -38 -20 -47 -15 -52 30 -3 27 -1 34 10 30 7 -3
27 -5 43 -5z m119 -70 c0 -5 -2 -10 -4 -10 -3 0 -8 5 -11 10 -3 6 -1 10 4 10
6 0 11 -4 11 -10z m10 -51 c0 -5 -4 -9 -10 -9 -5 0 -10 7 -10 16 0 8 5 12 10
9 6 -3 10 -10 10 -16z"/>
<path d="M4620 4910 c8 -5 22 -10 30 -10 13 0 13 1 0 10 -8 5 -22 10 -30 10
-13 0 -13 -1 0 -10z"/>
<path d="M4683 4893 c9 -2 23 -2 30 0 6 3 -1 5 -18 5 -16 0 -22 -2 -12 -5z"/>
<path d="M4755 4883 c10 -3 30 -13 44 -22 40 -26 93 -41 110 -31 13 7 10 11
-14 20 -78 31 -110 40 -134 39 -20 -1 -22 -2 -6 -6z"/>
<path d="M3292 4704 c-7 -8 -31 -14 -53 -14 -27 0 -38 -4 -33 -11 4 -7 24 -9
51 -6 48 5 73 21 58 36 -6 6 -15 4 -23 -5z"/>
<path d="M3371 4696 c-7 -8 -34 -27 -59 -41 -40 -22 -54 -25 -102 -20 -30 4
-67 11 -81 16 -29 11 -61 -1 -108 -41 -28 -24 -23 -33 19 -32 40 1 39 -23 -2
-45 -18 -9 -35 -17 -38 -16 -3 0 -18 3 -33 7 l-28 7 3 -52 c3 -52 3 -53 63
-90 58 -37 86 -47 84 -31 0 4 -31 27 -70 52 -94 61 -91 86 6 59 22 -6 100 -12
174 -13 80 0 136 -5 137 -11 4 -11 -104 -60 -153 -70 -29 -6 -31 -9 -23 -30
13 -33 5 -245 -10 -277 -7 -16 -19 -28 -27 -28 -9 0 -6 -7 7 -20 12 -12 18
-25 15 -30 -3 -5 -1 -29 5 -54 9 -39 6 -56 -16 -123 -22 -65 -26 -98 -28 -195
0 -74 -5 -113 -10 -107 -6 5 -26 9 -46 9 -19 0 -50 4 -68 9 -25 8 -32 7 -32
-4 0 -8 9 -19 21 -25 11 -7 29 -20 39 -30 10 -10 40 -22 67 -25 26 -4 56 -9
65 -11 15 -5 16 -1 6 26 -6 20 -9 77 -6 151 5 107 8 125 36 182 33 66 117 168
158 190 12 6 52 29 89 49 80 44 169 68 253 68 34 0 62 4 62 10 0 5 19 23 42
40 22 16 38 31 35 31 -8 2 -11 3 -47 13 -15 4 -41 1 -65 -9 -22 -8 -29 -13
-15 -10 14 3 38 8 54 12 48 10 22 -13 -40 -36 -61 -23 -84 -26 -84 -11 0 6 6
10 14 10 8 0 18 5 22 11 13 22 -131 -21 -221 -65 -46 -23 -75 -32 -75 -22 0 2
6 19 14 37 7 19 11 40 9 47 -3 7 1 19 7 27 13 16 2 19 -48 15 -16 -1 -25 5
-29 20 l-6 21 -14 -21 c-8 -11 -25 -20 -39 -20 -29 0 -46 36 -42 89 2 30 10
39 43 58 21 12 42 20 46 17 4 -2 9 2 12 8 2 7 8 9 13 5 5 -5 1 -22 -9 -39 -20
-35 -15 -48 13 -30 17 10 20 10 21 -5 1 -35 18 20 18 62 2 65 9 70 78 56 136
-30 154 -31 182 -13 30 19 131 123 131 134 0 4 16 18 35 30 41 27 43 34 14 41
-16 4 -28 -1 -40 -18 -13 -16 -26 -21 -40 -18 -12 4 -25 0 -30 -8 -6 -10 -33
-14 -104 -14 -100 0 -124 -9 -52 -20 88 -13 100 -17 86 -26 -20 -12 -67 -11
-116 4 -54 16 -59 22 -66 78 -5 38 -3 50 13 64 10 9 23 14 29 11 5 -4 13 -1
17 6 4 7 4 10 -1 6 -4 -4 -13 -1 -19 6 -17 23 -99 31 -115 12z m-1 -98 c29
-31 22 -49 -30 -75 -56 -27 -66 -28 -97 -3 -30 23 -47 17 -40 -16 4 -21 0 -24
-24 -24 -30 0 -36 9 -19 26 6 6 11 26 12 46 1 33 4 37 47 51 70 23 126 21 151
-5z m-237 -105 c-7 -2 -19 -2 -25 0 -7 3 -2 5 12 5 14 0 19 -2 13 -5z m346
-37 c21 -12 22 -14 5 -20 -11 -4 -20 -3 -22 3 -2 6 -10 11 -18 11 -8 0 -14 5
-14 10 0 14 20 12 49 -4z"/>
<path d="M3535 4690 l-20 -9 20 0 c11 0 27 4 35 9 13 9 13 10 0 9 -8 0 -24 -4
-35 -9z"/>
<path d="M3918 4493 c7 -3 16 -2 19 1 4 3 -2 6 -13 5 -11 0 -14 -3 -6 -6z"/>
<path d="M4033 4363 c11 -17 312 -88 343 -81 26 6 -101 45 -206 63 -47 8 -98
18 -114 21 -18 4 -27 3 -23 -3z"/>
<path d="M5012 4334 c-18 -14 -39 -23 -47 -20 -10 3 -15 -1 -15 -13 0 -28 -22
-41 -90 -54 -51 -10 -60 -14 -57 -32 1 -11 6 -26 11 -34 14 -22 7 -183 -9
-201 -7 -8 -14 -26 -14 -40 -3 -93 -30 -172 -58 -171 -4 1 -8 -4 -8 -11 0 -18
35 -18 36 0 1 10 5 1 10 -18 10 -43 2 -77 -14 -61 -14 14 -30 14 -22 1 3 -6
-5 -14 -19 -20 -18 -7 -26 -17 -26 -34 0 -14 -8 -30 -17 -35 -15 -9 -13 -11
16 -17 l33 -7 -23 -13 c-32 -18 -69 -18 -69 0 0 25 -25 24 -44 -2 -19 -25 -19
-25 2 -20 12 4 22 3 22 0 0 -12 -17 -34 -26 -34 -22 -1 -34 -12 -34 -29 0 -12
5 -16 14 -13 8 3 17 1 21 -5 9 -15 -33 -14 -50 2 -45 40 -47 41 -67 28 -15 -9
-23 -10 -31 -2 -6 6 -34 11 -61 11 -34 0 -46 3 -37 9 8 5 20 7 28 4 11 -4 12
11 8 78 -3 46 -6 91 -6 99 0 8 -8 33 -16 55 -14 37 -25 115 -16 115 11 0 53
-109 64 -166 7 -35 16 -64 20 -64 9 0 22 51 15 58 -3 3 2 10 11 17 24 18 27
119 5 154 -25 39 -55 61 -68 50 -16 -13 -64 6 -64 26 0 8 -4 15 -10 15 -5 0
-10 8 -10 18 0 21 -18 42 -37 42 -10 0 -12 -18 -7 -84 5 -63 4 -85 -6 -91 -10
-6 -12 -4 -7 9 4 10 1 19 -8 23 -10 3 -13 12 -10 24 4 13 1 19 -9 19 -9 0 -16
7 -16 15 0 7 -6 18 -13 22 -8 4 -17 17 -21 27 -5 16 -9 17 -19 6 -9 -10 -9
-13 1 -17 6 -3 12 -11 12 -18 0 -23 -22 -29 -36 -10 -9 12 -28 18 -61 19 -46
1 -48 2 -46 29 1 18 -2 27 -10 24 -22 -7 -19 -44 7 -81 35 -53 86 -213 92
-293 5 -61 2 -78 -30 -166 -20 -53 -44 -114 -55 -135 -21 -41 -85 -105 -147
-146 -56 -36 -195 -76 -273 -77 -49 -1 -58 -3 -36 -8 17 -4 73 -6 125 -5 87 2
104 6 189 42 98 43 152 75 214 129 42 37 45 37 138 19 60 -11 72 -11 110 5 44
18 100 24 112 13 3 -4 51 -8 107 -10 73 -3 99 0 97 8 -1 8 14 13 46 13 26 0
47 -3 47 -7 0 -4 -6 -8 -12 -8 -7 -1 -4 -6 8 -13 12 -7 19 -18 16 -26 -3 -10
1 -12 16 -9 11 3 30 -1 42 -9 35 -25 88 -2 163 70 78 74 95 121 50 138 -23 9
-24 11 -11 27 9 9 18 34 22 54 6 32 4 37 -15 40 -26 4 -34 35 -11 43 35 10 41
70 40 373 -1 160 -2 292 -4 292 -1 0 -14 -4 -28 -10 -34 -12 -34 3 -1 42 14
16 25 36 25 44 0 18 1 18 -38 -12z m14 -153 c-19 -21 -23 -45 -12 -77 4 -15 1
-28 -11 -40 -17 -17 -18 -16 -21 21 -4 47 3 79 24 99 22 23 41 20 20 -3z m-72
-63 c-8 -98 -14 -129 -29 -134 -19 -8 -25 -42 -9 -48 8 -3 14 -14 14 -25 0
-11 6 -24 14 -28 11 -6 9 -16 -12 -48 -15 -24 -25 -51 -23 -67 1 -16 0 -28 -3
-28 -11 0 -61 53 -58 62 2 8 2 70 0 173 -1 46 12 186 19 198 2 4 24 7 48 7
l43 0 -4 -62z m-554 -289 c0 -5 -4 -9 -10 -9 -5 0 -10 7 -10 16 0 8 5 12 10 9
6 -3 10 -10 10 -16z m-198 -14 c0 -14 1 -31 2 -37 1 -7 -8 -14 -18 -16 -15 -3
-17 0 -11 14 5 11 9 29 9 42 1 30 16 28 18 -3z m68 -25 c0 -5 -5 -10 -11 -10
-5 0 -7 5 -4 10 3 6 8 10 11 10 2 0 4 -4 4 -10z m10 -51 c0 -5 -7 -9 -15 -9
-15 0 -20 12 -9 23 8 8 24 -1 24 -14z m-73 -11 c-3 -8 -6 -5 -6 6 -1 11 2 17
5 13 3 -3 4 -12 1 -19z m783 -7 c0 -12 -28 -22 -34 -12 -3 5 -3 11 1 15 9 9
33 7 33 -3z m-85 -40 c-9 -35 -23 -51 -46 -51 -20 0 -26 24 -9 35 6 4 8 15 5
25 -4 14 0 19 17 22 33 6 40 -1 33 -31z m-537 -261 c19 -26 25 -28 48 -20 33
13 37 13 31 -4 -7 -18 22 -26 74 -19 36 5 41 4 37 -13 -4 -25 -77 -31 -120
-10 -17 9 -46 16 -65 16 -18 0 -33 5 -33 10 0 6 -4 10 -10 10 -5 0 -10 -6 -10
-14 0 -8 22 -18 60 -26 33 -7 57 -16 55 -20 -6 -9 -71 -7 -95 2 -8 4 -39 9
-67 13 -48 5 -53 4 -53 -14 0 -10 -7 -21 -15 -25 -8 -3 -15 -4 -15 -3 1 19 32
83 48 102 17 19 28 24 47 19 18 -4 27 -1 31 10 9 24 28 19 52 -14z m142 -22
c0 -5 -4 -8 -10 -8 -5 0 -10 10 -10 23 0 18 2 19 10 7 5 -8 10 -18 10 -22z
m55 22 c-3 -5 -12 -10 -20 -10 -8 0 -17 5 -20 10 -4 6 5 10 20 10 15 0 24 -4
20 -10z m339 -144 c-8 -20 -24 -21 -24 -1 0 18 -12 19 -27 4 -6 -6 -16 -8 -23
-4 -16 10 26 39 45 31 8 -3 15 0 15 7 0 7 5 5 10 -5 6 -9 7 -23 4 -32z m-599
24 c-3 -5 -21 -10 -38 -9 -31 1 -31 1 -7 9 36 11 52 11 45 0z"/>
<path d="M3461 4326 c-19 -23 -21 -56 -4 -82 21 -32 46 -30 77 7 29 35 33 61
11 79 -13 10 -15 9 -15 -9 0 -11 -4 -21 -9 -21 -5 0 -17 -3 -27 -7 -14 -5 -16
-2 -12 20 6 30 -3 35 -21 13z m74 -46 c3 -5 2 -10 -4 -10 -5 0 -13 5 -16 10
-3 6 -2 10 4 10 5 0 13 -4 16 -10z"/>
<path d="M3320 4249 c0 -5 5 -7 10 -4 6 3 10 8 10 11 0 2 -4 4 -10 4 -5 0 -10
-5 -10 -11z"/>
<path d="M3440 4180 c0 -13 11 -13 30 0 12 8 11 10 -7 10 -13 0 -23 -4 -23
-10z"/>
<path d="M4420 4170 c0 -5 9 -10 20 -10 11 0 20 5 20 10 0 6 -9 10 -20 10 -11
0 -20 -4 -20 -10z"/>
<path d="M4490 4161 c0 -5 5 -13 10 -16 6 -3 10 -2 10 4 0 5 -4 13 -10 16 -5
3 -10 2 -10 -4z"/>
<path d="M4540 4149 c0 -5 5 -7 10 -4 6 3 10 8 10 11 0 2 -4 4 -10 4 -5 0 -10
-5 -10 -11z"/>
<path d="M3776 4117 c-25 -18 -12 -37 25 -37 26 0 30 3 27 22 -4 27 -26 34
-52 15z"/>
<path d="M3990 4105 c-7 -9 -10 -18 -7 -22 8 -7 37 15 37 28 0 14 -16 11 -30
-6z"/>
<path d="M3854 4089 c-18 -20 -18 -21 1 -36 11 -8 32 -17 47 -20 15 -3 30 -14
33 -24 9 -27 32 -23 37 6 3 14 1 25 -3 25 -5 0 -9 6 -9 13 0 20 -37 50 -50 42
-6 -4 -17 -2 -24 4 -10 8 -18 6 -32 -10z"/>
<path d="M4027 4082 c-10 -10 -17 -22 -17 -25 0 -12 28 -7 34 6 3 8 8 7 16 -5
12 -20 40 -24 40 -7 0 6 -9 13 -20 16 -11 3 -20 12 -20 19 0 19 -14 17 -33 -4z"/>
<path d="M4184 4074 c9 -8 16 -20 16 -25 0 -5 10 -9 23 -9 21 0 20 1 -8 25
-33 27 -55 34 -31 9z"/>
<path d="M3995 4030 c3 -5 8 -10 11 -10 2 0 4 5 4 10 0 6 -5 10 -11 10 -5 0
-7 -4 -4 -10z"/>
<path d="M3520 4004 c-57 -15 -157 -63 -200 -96 -25 -20 -86 -99 -117 -153
-22 -40 -22 -177 1 -265 19 -73 71 -181 102 -214 64 -67 165 -126 216 -126 13
0 39 -5 58 -10 86 -26 249 33 348 125 108 100 126 134 151 298 11 67 5 91 -46
194 -42 85 -125 183 -154 183 -10 0 -28 9 -40 21 -23 23 -96 52 -110 43 -15
-9 -10 -33 12 -55 16 -16 29 -20 53 -15 l31 5 -27 -14 c-21 -12 -33 -13 -55
-4 -33 12 -43 26 -43 60 0 15 -7 30 -16 33 -27 10 -106 5 -164 -10z m87 -85
c98 0 154 -13 179 -41 10 -10 23 -18 30 -18 13 0 44 -37 44 -52 0 -5 -8 -8
-17 -8 -14 0 -14 -3 4 -22 56 -64 69 -248 23 -337 -25 -50 -91 -118 -126 -131
-29 -11 -170 -12 -228 -2 -22 4 -41 13 -44 21 -4 12 8 13 71 8 48 -4 78 -3 82
3 4 6 21 8 41 4 26 -5 35 -2 40 10 3 9 14 16 23 16 28 0 100 72 111 110 25 90
-4 217 -60 258 -16 12 -33 22 -39 22 -5 0 -11 5 -13 10 -9 27 -217 5 -243 -25
-6 -7 -27 -14 -47 -17 -37 -4 -37 -4 -36 32 1 19 8 40 17 47 10 8 11 12 4 13
-6 0 -15 -4 -18 -10 -9 -15 -25 -12 -25 5 0 8 9 20 20 27 11 7 20 17 20 23 0
14 81 66 91 59 5 -3 48 -5 96 -5z m77 -244 c16 -16 33 -82 23 -91 -3 -3 -13
13 -23 35 -14 30 -25 41 -41 41 -13 0 -23 4 -23 8 0 26 41 30 64 7z m-44 -225
c0 -5 -7 -7 -15 -4 -8 4 -12 10 -9 15 6 11 24 2 24 -11z m-140 -66 c0 -2 -7
-4 -15 -4 -8 0 -15 4 -15 10 0 5 7 7 15 4 8 -4 15 -8 15 -10z m10 -113 c61
-18 107 -25 163 -25 65 0 77 -2 75 -15 -6 -32 -186 -60 -259 -41 -26 7 -50 25
-74 55 -36 43 -39 73 -6 59 9 -4 54 -19 101 -33z"/>
<path d="M4040 3969 c0 -18 2 -19 15 -9 8 7 15 16 15 21 0 5 -7 9 -15 9 -9 0
-15 -9 -15 -21z"/>
<path d="M4360 3930 c0 -5 7 -10 15 -10 8 0 15 5 15 10 0 6 -7 10 -15 10 -8 0
-15 -4 -15 -10z"/>
<path d="M4733 3912 c-34 -5 -28 -21 7 -20 17 1 30 5 30 9 0 12 -12 15 -37 11z"/>
<path d="M3030 3890 c0 -5 5 -10 11 -10 5 0 7 5 4 10 -3 6 -8 10 -11 10 -2 0
-4 -4 -4 -10z"/>
<path d="M3020 3831 c0 -6 5 -13 10 -16 6 -4 8 -15 5 -26 -4 -10 -2 -19 4 -19
18 0 21 16 8 44 -12 25 -27 35 -27 17z"/>
<path d="M2970 3681 c0 -5 6 -14 14 -20 10 -9 15 -8 19 3 3 8 -1 17 -9 20 -21
8 -24 8 -24 -3z"/>
<path d="M4555 3640 c3 -5 11 -10 16 -10 6 0 7 5 4 10 -3 6 -11 10 -16 10 -6
0 -7 -4 -4 -10z"/>
<path d="M4525 3620 c4 -6 11 -8 16 -5 14 9 11 15 -7 15 -8 0 -12 -5 -9 -10z"/>
<path d="M4685 3280 c-16 -7 -17 -9 -3 -9 9 -1 20 4 23 9 7 11 7 11 -20 0z"/>
<path d="M2830 2920 c-245 -7 -297 -19 -376 -92 -55 -50 -74 -93 -74 -163 0
-49 4 -60 29 -86 24 -23 38 -29 74 -29 78 0 141 75 95 114 -43 37 -7 104 69
130 61 21 103 20 188 -4 77 -22 151 -26 187 -9 56 25 88 118 49 139 -11 5 -21
9 -23 8 -2 -1 -100 -5 -218 -8z"/>
<path d="M3335 2837 c-30 -37 -56 -97 -111 -252 -19 -55 -41 -110 -49 -122 -8
-11 -39 -33 -70 -48 -45 -23 -65 -27 -107 -23 -33 4 -56 12 -64 23 -20 27 -10
32 49 27 63 -5 105 12 137 58 31 44 35 89 10 128 -53 86 -196 63 -268 -42 -91
-136 -74 -282 39 -329 44 -18 48 -19 103 -3 38 11 72 30 100 57 24 21 46 39
48 39 3 0 8 -18 12 -41 5 -34 12 -42 42 -55 52 -22 94 -5 151 62 l46 54 18
-39 c48 -107 183 -114 289 -15 l48 45 19 -38 c26 -51 93 -86 147 -78 53 8 95
29 145 71 36 32 42 33 47 17 12 -42 32 -69 59 -82 26 -13 33 -12 71 9 24 12
55 41 70 64 l28 41 7 -32 c20 -100 95 -117 168 -39 l25 26 12 -30 c7 -16 25
-35 39 -42 22 -10 30 -8 53 9 23 17 28 29 33 89 3 38 11 86 18 106 13 41 53
78 82 78 33 0 38 -29 18 -102 -22 -78 -23 -107 -8 -142 28 -61 101 -53 170 19
l37 37 18 -37 c38 -82 125 -77 186 9 37 53 48 57 48 17 0 -32 31 -77 60 -86
24 -8 55 8 101 52 l36 35 11 -30 c6 -17 22 -38 37 -48 38 -25 94 -6 135 47 35
43 90 145 90 165 0 26 -22 25 -46 -1 -17 -19 -32 -25 -52 -23 -35 4 -40 38
-17 122 22 81 18 111 -15 111 -30 0 -72 -58 -96 -135 -21 -66 -54 -103 -91
-98 -53 6 -51 25 16 200 35 89 64 177 65 193 1 25 -3 30 -26 33 -35 4 -72 -45
-104 -138 -32 -94 -31 -94 -64 -70 -80 57 -204 -11 -254 -140 -23 -59 -43 -80
-77 -80 -43 0 -54 29 -35 94 22 74 20 99 -9 126 -31 30 -89 24 -139 -15 -39
-30 -66 -28 -66 5 0 25 -25 37 -44 21 -18 -15 -61 -106 -70 -148 -10 -45 -49
-83 -85 -83 -47 0 -50 34 -11 130 43 106 30 135 -41 93 -27 -16 -31 -16 -58 0
-55 32 -139 16 -190 -37 -18 -19 -49 -67 -70 -108 -50 -101 -67 -102 -108 -6
-17 39 -29 77 -26 84 2 6 15 17 29 24 37 20 32 58 -11 75 -61 26 -101 -6 -208
-167 -50 -75 -65 -90 -112 -114 -45 -22 -65 -26 -107 -22 -47 5 -78 24 -78 49
0 4 28 5 63 2 53 -4 67 -2 97 19 19 13 43 41 54 62 16 32 17 44 7 75 -15 52
-42 73 -99 79 -90 8 -162 -41 -211 -145 -36 -77 -53 -93 -93 -93 -41 0 -53 29
-38 93 13 56 17 64 80 205 46 102 48 126 8 130 -20 2 -33 -5 -53 -31z m-307
-259 c17 -17 15 -38 -5 -60 -22 -24 -60 -23 -73 3 -24 43 43 92 78 57z m600 0
c17 -17 15 -38 -5 -60 -28 -31 -83 -18 -83 21 0 39 61 66 88 39z m308 -64 c12
-65 -53 -118 -96 -79 -22 20 -20 26 37 103 29 39 49 31 59 -24z m403 36 c27
-14 32 -37 17 -75 -17 -40 -46 -58 -81 -49 -49 12 -39 94 15 121 30 15 27 15
49 3z m899 -6 c39 -27 19 -94 -35 -115 -39 -15 -63 4 -63 51 0 30 6 43 26 59
32 25 43 26 72 5z"/>
<path d="M5592 2850 c-26 -11 -45 -54 -36 -82 16 -51 106 -61 139 -15 47 67
-19 130 -103 97z"/>
<path d="M2724 2698 c-9 -17 -25 -56 -35 -86 -42 -122 -112 -192 -192 -192
-37 0 -87 32 -87 56 0 26 -45 15 -80 -21 -28 -28 -34 -44 -38 -89 -8 -98 55
-159 164 -159 107 0 185 65 254 208 48 102 105 277 97 299 -4 10 -18 16 -36
16 -24 0 -34 -7 -47 -32z"/>
<path d="M2062 1688 c3 -109 4 -113 26 -116 21 -3 22 0 22 60 1 68 13 64 25
-9 12 -72 28 -67 50 16 l13 46 1 -58 c1 -57 2 -58 27 -55 l27 3 1 113 1 113
-35 -3 c-32 -3 -35 -6 -42 -45 -13 -77 -24 -81 -38 -14 -13 60 -13 61 -47 61
l-34 0 3 -112z"/>
<path d="M2327 1793 c-4 -3 -7 -25 -7 -47 0 -37 -12 -101 -26 -148 -4 -14 1
-18 24 -18 22 0 31 6 35 21 7 25 31 20 35 -7 2 -16 9 -20 30 -16 l28 4 -18 86
c-10 48 -18 97 -18 110 0 19 -5 22 -38 22 -21 0 -42 -3 -45 -7z m53 -98 c0
-19 -4 -37 -10 -40 -6 -4 -10 12 -10 40 0 28 4 44 10 40 6 -3 10 -21 10 -40z"/>
<path d="M2487 1688 l1 -113 26 -3 c25 -3 26 -2 27 60 l0 63 22 -60 c18 -50
26 -60 48 -63 l25 -3 0 116 -1 115 -25 0 c-24 0 -25 -2 -22 -57 2 -52 1 -56
-12 -40 -8 11 -18 36 -21 58 -6 36 -9 39 -38 39 l-32 0 2 -112z"/>
<path d="M2685 1691 l0 -109 29 -6 c15 -3 40 0 54 7 39 18 53 53 49 119 -4 75
-24 98 -86 98 l-46 0 0 -109z m95 -1 c0 -49 -19 -88 -38 -76 -15 9 -16 96 -1
133 10 27 11 27 25 9 8 -11 14 -41 14 -66z"/>
<path d="M2864 1688 c1 -111 2 -113 24 -113 23 0 23 2 25 113 l2 112 -26 0
-27 0 2 -112z"/>
<path d="M2961 1684 l0 -115 27 3 c25 3 27 6 24 41 -3 33 -1 38 15 35 13 -2
19 -14 21 -41 3 -32 7 -37 28 -37 29 0 32 29 9 74 -11 20 -12 33 -5 40 5 5 10
26 10 46 0 50 -24 70 -83 70 l-46 0 0 -116z m89 52 c0 -35 -10 -56 -26 -56
-10 0 -14 12 -14 40 0 33 3 40 20 40 14 0 20 -7 20 -24z"/>
<path d="M3147 1688 c2 -111 2 -113 25 -113 23 0 23 2 24 113 l2 112 -27 0
-26 0 2 -112z"/>
<path d="M3334 1690 l0 -109 26 -6 c33 -7 76 8 88 32 29 54 18 164 -18 183
-10 5 -36 10 -57 10 l-39 0 0 -110z m93 -7 c-5 -45 -23 -77 -38 -67 -10 6 -12
114 -2 140 6 15 8 15 26 -7 14 -18 18 -34 14 -66z"/>
<path d="M3531 1722 c-7 -44 -16 -94 -21 -111 -8 -29 -7 -31 20 -31 19 0 29 6
33 20 3 11 10 20 17 20 7 0 14 -9 17 -20 4 -14 14 -20 33 -20 28 0 28 0 18 43
-5 23 -13 71 -16 107 l-7 65 -41 3 -42 3 -11 -79z m59 -27 c0 -25 -4 -45 -10
-45 -11 0 -14 73 -3 83 11 12 13 8 13 -38z"/>
<path d="M3696 1688 l2 -113 27 -3 28 -4 -6 62 c-8 74 5 72 29 -5 16 -48 21
-55 44 -55 l26 0 0 115 -1 115 -26 0 c-25 0 -26 -1 -22 -57 4 -54 3 -57 -12
-38 -8 11 -18 36 -22 57 -5 35 -8 38 -37 38 l-31 0 1 -112z"/>
<path d="M3986 1690 c0 -61 4 -113 7 -116 3 -4 31 -3 62 1 48 6 57 10 66 33 7
19 7 34 -2 52 -7 14 -11 46 -10 72 3 55 -12 68 -81 68 l-43 0 1 -110z m82 34
c-4 -41 -38 -46 -38 -7 0 32 19 58 33 44 5 -5 7 -21 5 -37z m6 -71 c4 -9 0
-23 -9 -32 -14 -14 -17 -14 -25 -1 -5 8 -10 23 -10 33 0 22 36 23 44 0z"/>
<path d="M4169 1795 c0 -3 -1 -53 -1 -112 l-1 -108 59 0 c55 0 59 2 62 24 3
22 1 23 -27 18 -24 -5 -33 -2 -41 13 -14 26 -13 29 15 40 30 11 33 30 5 30
-25 0 -36 25 -20 45 8 9 21 13 36 9 21 -5 24 -3 24 20 0 25 -2 26 -55 26 -30
0 -55 -2 -56 -5z"/>
<path d="M4333 1684 l-1 -115 27 3 c24 3 26 6 23 41 -5 55 32 44 40 -13 2 -17
10 -26 26 -28 26 -4 29 13 7 64 -10 25 -12 41 -5 54 15 27 12 62 -6 88 -12 17
-25 22 -63 22 l-47 0 -1 -116z m87 46 c0 -29 -11 -50 -26 -50 -14 0 -21 70 -7
83 10 10 33 -13 33 -33z"/>
<path d="M4516 1688 c1 -112 1 -113 25 -113 22 0 24 4 23 43 -1 34 3 42 18 42
18 0 21 -8 22 -60 1 -20 6 -25 26 -25 22 0 25 4 22 35 -1 19 -9 44 -16 55 -10
16 -10 25 0 50 7 17 13 42 14 58 0 22 -4 27 -24 27 -23 0 -25 -5 -28 -47 -2
-35 -7 -48 -18 -48 -12 0 -14 11 -12 48 3 46 2 47 -25 47 l-28 0 1 -112z"/>
<path d="M4722 1718 c-6 -46 -15 -95 -18 -110 -6 -26 -4 -28 25 -28 17 0 30 3
30 8 -3 20 2 32 16 32 8 0 15 -9 15 -20 0 -16 7 -20 30 -20 34 0 34 0 19 53
-6 21 -13 66 -17 100 l-7 62 -40 3 -40 3 -13 -83z m63 -56 c-3 -7 -9 -10 -15
-7 -12 7 -14 58 -3 69 9 9 25 -44 18 -62z"/>
<path d="M4890 1685 l0 -115 25 0 c23 0 25 4 25 40 0 22 4 40 8 40 16 0 32
-24 32 -47 0 -27 26 -41 42 -25 8 8 7 22 -4 51 -12 31 -13 47 -5 79 9 33 8 44
-6 66 -15 22 -25 26 -67 26 l-50 0 0 -115z m87 59 c7 -18 -12 -64 -27 -64 -5
0 -10 18 -10 40 0 29 4 40 15 40 9 0 18 -7 22 -16z"/>
<path d="M5100 1763 c0 -21 -7 -69 -15 -108 -8 -38 -15 -71 -15 -72 0 -2 14
-3 30 -3 23 0 30 4 30 20 0 11 7 20 15 20 8 0 15 -9 15 -20 0 -16 7 -20 30
-20 17 0 30 1 30 3 -1 1 -9 49 -19 107 l-18 105 -41 3 -42 3 0 -38z m55 -101
c-11 -29 -25 3 -18 43 l7 40 8 -34 c5 -18 7 -40 3 -49z"/>
<path d="M5264 1688 l1 -113 25 0 c23 0 25 3 22 42 -5 70 33 64 40 -7 3 -30 7
-35 28 -35 22 0 25 4 21 30 -1 17 -10 43 -18 58 -9 19 -11 33 -5 40 5 7 13 31
17 55 7 41 6 42 -22 42 -27 0 -28 -2 -28 -47 0 -36 -4 -48 -15 -48 -11 0 -15
11 -13 48 1 45 0 47 -26 47 l-28 0 1 -112z"/>
<path d="M5445 1790 c-10 -16 4 -30 32 -30 l25 0 -3 -92 c-4 -92 -4 -93 20
-93 24 0 24 1 22 93 l-2 92 25 0 c19 0 26 5 26 20 0 18 -7 20 -69 20 -39 0
-73 -4 -76 -10z"/>
<path d="M5635 1685 l0 -115 58 0 c57 0 57 0 57 30 0 28 -2 29 -26 20 -31 -12
-44 -6 -44 22 0 11 8 22 20 25 26 7 26 33 -1 33 -16 0 -20 5 -17 28 3 24 7 27
36 24 28 -2 32 1 32 23 0 24 -3 25 -57 25 l-58 0 0 -115z"/>
<path d="M5796 1688 c1 -112 1 -113 25 -113 20 0 24 5 27 38 2 20 7 37 12 37
13 0 29 -32 27 -55 -2 -15 4 -20 23 -20 21 0 25 4 22 25 -1 14 -7 35 -13 46
-8 16 -8 31 0 57 10 28 9 41 0 59 -17 32 -28 38 -79 38 l-45 0 1 -112z m84 63
c13 -25 -3 -71 -25 -71 -18 0 -20 41 -5 71 13 24 17 24 30 0z"/>
</g>
</svg>
